<svg width="14" height="13" viewBox="0 0 14 13" fill="none" xmlns="http://www.w3.org/2000/svg">
<g clip-path="url(#clip0_46_27236)">
<path d="M13.4611 4.69839L9.48054 4.11997L7.7004 0.513014C7.6291 0.368601 7.49039 0.296265 7.35168 0.296265L7.3522 10.6722L10.912 12.5439C11.1974 12.6937 11.5306 12.4516 11.4761 12.134L10.7963 8.16923L13.6765 5.36161C13.9076 5.13656 13.78 4.7448 13.4611 4.69839Z" fill="#FFB820"/>
<path d="M9.9604 7.89784C9.9604 7.89784 10.5744 11.4765 10.5764 11.4885C10.5744 11.4882 7.40168 10.6847 7.35216 10.6723C7.35164 10.672 3.79136 12.5439 3.79136 12.5439C3.5059 12.6938 3.17274 12.4516 3.22719 12.134L3.90699 8.16929L1.02677 5.36167C0.79576 5.13662 0.923321 4.74486 1.24222 4.69846L5.22278 4.12003L7.00292 0.513075C7.07422 0.368662 7.21293 0.296326 7.35164 0.296326L8.96403 4.83094L12.5694 5.35493L9.9604 7.89784Z" fill="#FFD06A"/>
</g>
<defs>
<clipPath id="clip0_46_27236">
<rect width="12.8856" height="12.8856" fill="white" transform="translate(0.908813)"/>
</clipPath>
</defs>
</svg>
