<svg width="56" height="56" viewBox="0 0 56 56" fill="none" xmlns="http://www.w3.org/2000/svg">
<g clip-path="url(#clip0_46_27069)">
<rect width="57" height="57" fill="url(#paint0_linear_46_27069)"/>
<g clip-path="url(#clip1_46_27069)">
<path d="M30.0525 39.0463C30.0749 39.0422 30.0969 39.0363 30.1186 39.0288C30.1223 39.0276 30.126 39.0263 30.1296 39.0249C30.152 39.0168 30.1739 39.007 30.1951 38.9954C30.1959 38.995 30.1966 38.9948 30.1973 38.9944C30.2007 38.9926 30.2037 38.9903 30.207 38.9883C30.2161 38.983 30.2252 38.9774 30.2341 38.9714C30.2402 38.9673 30.2459 38.9628 30.2517 38.9584C30.2581 38.9536 30.2646 38.9488 30.2708 38.9436C30.2784 38.9374 30.2855 38.9306 30.2927 38.9238C30.296 38.9208 30.2994 38.9181 30.3026 38.915C30.3049 38.9125 30.3071 38.9103 30.3094 38.9079C30.3099 38.9074 30.3104 38.9069 30.3107 38.9066C37.1831 32.0304 36.3076 28.2331 36.267 28.0747C36.2017 27.8208 35.9427 27.6674 35.6885 27.7327C35.4343 27.7979 35.2811 28.0569 35.3464 28.3111C35.3483 28.3187 28.1416 34.3155 28.1416 34.3155C28.0144 34.0861 27.7249 34.0034 27.4955 34.1309C27.266 34.2584 27.1834 34.5477 27.3109 34.777L29.5454 38.7996C29.5456 38.8 29.5459 38.8005 29.5461 38.8009L29.551 38.8098C29.552 38.8116 29.5534 38.8133 29.5546 38.8151C29.5629 38.8299 29.5722 38.8441 29.5824 38.8581C29.5856 38.8624 29.5886 38.8669 29.5919 38.8709C29.6027 38.8848 29.6142 38.8982 29.6266 38.9109C29.6281 38.9123 29.6292 38.9141 29.6306 38.9154C29.6316 38.9164 29.6329 38.9171 29.634 38.9183C29.6493 38.9333 29.6656 38.9468 29.6825 38.9593C29.6866 38.9624 29.6907 38.9656 29.695 38.9686C29.7133 38.9813 29.7323 38.9928 29.7519 39.0028C29.7544 39.0041 29.7569 39.005 29.7594 39.0063C29.7792 39.0159 29.7996 39.0241 29.8202 39.0308C29.8221 39.0314 29.824 39.0321 29.8258 39.0328C29.8474 39.0394 29.8692 39.0443 29.8914 39.0477C29.8957 39.0484 29.9001 39.0491 29.9043 39.0495C29.9262 39.0525 29.9482 39.0541 29.9702 39.0539C29.9736 39.0539 29.9768 39.0536 29.9802 39.0534C30.0007 39.0528 30.0212 39.0509 30.0416 39.0476C30.0455 39.0473 30.0489 39.0469 30.0525 39.0463Z" fill="#EE5253"/>
<path d="M21.8693 28.5045C21.9968 28.2751 21.914 27.9855 21.6846 27.8584C21.6846 27.8584 27.6866 20.6529 27.6951 20.6548L27.6889 20.6532L27.9253 19.7327C27.7669 19.692 23.9699 18.8169 17.0937 25.6893C17.0933 25.6898 17.0928 25.6903 17.0924 25.6906C17.09 25.693 17.0877 25.6952 17.0854 25.6975C17.0822 25.7008 17.0796 25.7041 17.0765 25.7074C17.0697 25.7145 17.063 25.7217 17.0567 25.7294C17.0515 25.7355 17.0467 25.742 17.0419 25.7484C17.0376 25.7542 17.0331 25.7601 17.0289 25.7661C17.0229 25.7749 17.0174 25.7839 17.0121 25.7931C17.0102 25.7965 17.0079 25.7995 17.006 25.8029C17.0056 25.8036 17.0054 25.8043 17.0049 25.805C16.9932 25.8262 16.9836 25.848 16.9755 25.8702C16.9741 25.8741 16.9727 25.8779 16.9715 25.8818C16.9642 25.9035 16.9582 25.9252 16.9542 25.9475C16.9534 25.9512 16.9531 25.9549 16.9526 25.9587C16.9494 25.9787 16.9474 25.9991 16.9469 26.0194C16.9467 26.0229 16.9464 26.0264 16.9463 26.0299C16.9462 26.0519 16.9478 26.0737 16.9507 26.0954C16.9513 26.0999 16.9519 26.1042 16.9526 26.1087C16.9561 26.1309 16.9609 26.1526 16.9676 26.1741C16.9681 26.176 16.9689 26.178 16.9694 26.1798C16.9761 26.2006 16.9844 26.2207 16.9939 26.2405C16.9952 26.2432 16.9962 26.2456 16.9976 26.2481C17.0074 26.2678 17.019 26.2865 17.0317 26.305C17.0348 26.3093 17.0379 26.3134 17.041 26.3176C17.0536 26.3344 17.0671 26.3506 17.0822 26.366C17.0832 26.3672 17.0839 26.3682 17.085 26.3694C17.0863 26.3707 17.0881 26.3719 17.0894 26.3733C17.1022 26.3858 17.1156 26.3973 17.1294 26.4081C17.1336 26.4114 17.1379 26.4144 17.1423 26.4175C17.1562 26.4277 17.1705 26.437 17.1852 26.4454C17.1871 26.4465 17.1887 26.4479 17.1906 26.4489L17.1994 26.4539C17.1999 26.4541 17.2002 26.4542 17.2007 26.4546L21.223 28.6891C21.4524 28.8166 21.7418 28.734 21.8693 28.5045Z" fill="#FF6B6B"/>
<path d="M19.9931 31.0698C19.8609 30.9376 19.8184 30.7402 19.8847 30.5654C21.1367 27.2612 25.9264 21.3365 28.7584 18.5044C33.284 13.9789 38.1161 11.8538 43.5306 12.0078C43.7825 12.015 43.985 12.2175 43.9921 12.4693C44.1462 17.8838 42.0212 22.7158 37.4955 27.2415C34.6634 30.0736 28.7389 34.8633 25.4348 36.1154C25.2599 36.1815 25.0626 36.1391 24.9304 36.0069L19.9931 31.0698Z" fill="#E4E8EB"/>
<path d="M43.9921 12.4693C43.9849 12.2174 43.7824 12.015 43.5306 12.0078C43.2357 11.9993 42.9429 11.999 42.6514 12.0041C42.562 17.0645 40.4303 21.6179 36.1511 25.8972C33.3191 28.7293 27.3945 33.519 24.0904 34.7709C23.9156 34.8372 23.7181 34.7948 23.5859 34.6626L19.9927 31.0695C19.9928 31.0695 19.9929 31.0696 19.993 31.0698L24.9303 36.0068C25.0624 36.139 25.2598 36.1815 25.4347 36.1153C28.7388 34.8632 34.6633 30.0735 37.4954 27.2415C42.0211 22.7158 44.1462 17.8838 43.9921 12.4693Z" fill="#CAD0D7"/>
<path d="M20.9446 28.4365C20.4887 29.2146 20.1227 29.9375 19.8847 30.5654C19.8184 30.7403 19.8609 30.9376 19.9931 31.0698L24.9303 36.0069C25.0625 36.1391 25.2599 36.1815 25.4347 36.1153C26.0627 35.8773 26.7855 35.5114 27.5636 35.0555L20.9446 28.4365Z" fill="#576574"/>
<path d="M12.3422 43.6581C11.9096 43.2255 11.8876 42.4788 12.2748 41.3755C12.5518 40.5864 13.0357 39.6079 13.7129 38.4676C14.8791 36.504 16.3981 34.4493 17.085 33.7625C17.7731 33.0743 18.6881 32.6953 19.6613 32.6953C20.6344 32.6953 21.5494 33.0743 22.2376 33.7625C23.6581 35.183 23.6581 37.4944 22.2376 38.915C21.5504 39.6021 19.4959 41.121 17.5324 42.2872C16.3919 42.9645 15.4137 43.4483 14.6247 43.7254C13.5213 44.1126 12.7747 44.0906 12.3422 43.6581Z" fill="#FF6B6B"/>
<path d="M22.2376 33.7625C22.0069 33.5318 21.7503 33.3367 21.475 33.1782C22.2752 34.5704 22.0817 36.3822 20.8933 37.5707C20.2062 38.2577 18.1516 39.7766 16.1882 40.9428C15.0477 41.6201 14.0694 42.104 13.2804 42.3811C12.7825 42.5558 12.358 42.6465 12.0015 42.6545C11.9918 43.088 12.1048 43.4207 12.3421 43.6582C12.7746 44.0907 13.5213 44.1126 14.6246 43.7254C15.4136 43.4483 16.3919 42.9644 17.5324 42.2872C19.4958 41.1211 21.5504 39.6022 22.2376 38.915C23.6581 37.4944 23.6581 35.183 22.2376 33.7625Z" fill="#EE5253"/>
<path d="M23.1337 32.8665C22.9481 32.6809 22.6472 32.6809 22.4616 32.8665L22.1257 33.2024L22.7978 33.8744L23.1337 33.5385C23.3192 33.3528 23.3192 33.052 23.1337 32.8665Z" fill="#222F3E"/>
<path d="M21.3414 31.0742C21.1558 30.8885 20.8549 30.8885 20.6693 31.0742L20.3334 31.41L21.0055 32.0821L21.3414 31.7461C21.527 31.5607 21.527 31.2598 21.3414 31.0742Z" fill="#222F3E"/>
<path d="M28.5837 27.4164C28.1647 26.9976 27.9339 26.4406 27.9339 25.8482C27.9339 25.2558 28.1647 24.6989 28.5836 24.28C29.0024 23.8612 29.5593 23.6305 30.1517 23.6304C30.7441 23.6304 31.3011 23.8611 31.7199 24.2799C32.1387 24.6987 32.3695 25.2558 32.3695 25.8481C32.3696 26.4406 32.1388 26.9976 31.7198 27.4164C30.8552 28.281 29.4484 28.281 28.5837 27.4164Z" fill="#54A0FF"/>
<path d="M33.9607 22.0391C33.0959 21.1745 33.0959 19.7675 33.9607 18.9029C34.8254 18.0382 36.2324 18.0382 37.0969 18.9029C37.5158 19.3217 37.7466 19.8787 37.7467 20.4711C37.7467 21.0634 37.5159 21.6205 37.097 22.0394C36.2324 22.9039 34.8254 22.9039 33.9607 22.0391Z" fill="#54A0FF"/>
<path d="M37.7467 20.4711C37.7466 19.8786 37.5159 19.3217 37.0969 18.9028C36.8571 18.663 36.5752 18.4898 36.275 18.3831C36.3586 18.6187 36.4023 18.8694 36.4024 19.1268C36.4024 19.7191 36.1716 20.2761 35.7527 20.6949C35.1285 21.3192 34.2217 21.4926 33.4402 21.2154C33.5469 21.5164 33.7203 21.7987 33.9607 22.0391C34.8255 22.9039 36.2326 22.9039 37.0971 22.0394C37.5159 21.6204 37.7467 21.0634 37.7467 20.4711Z" fill="#2E86DE"/>
<path d="M32.3695 25.8481C32.3695 25.2558 32.1387 24.6989 31.7198 24.28C31.4799 24.0401 31.1981 23.8669 30.8979 23.7603C30.9815 23.9958 31.0252 24.2465 31.0253 24.5039C31.0253 25.0963 30.7946 25.6533 30.3756 26.0721C29.7514 26.6964 28.8446 26.8696 28.0631 26.5926C28.1698 26.8934 28.3431 27.1758 28.5836 27.4163C29.4483 28.281 30.8553 28.281 31.7199 27.4164C32.1388 26.9974 32.3695 26.4405 32.3695 25.8481Z" fill="#2E86DE"/>
<path d="M15.1713 40.8287C14.8009 40.4583 15.0378 39.869 15.3184 39.3413C15.5493 38.9071 15.906 38.3519 16.3785 37.6912C17.1848 36.5638 18.1467 35.3889 18.4291 35.1065C19.1086 34.4271 20.214 34.4271 20.8934 35.1065C21.5729 35.7858 21.5729 36.8913 20.8934 37.5708C20.6109 37.8534 19.436 38.8153 18.3089 39.6214C17.6481 40.0939 17.0931 40.4506 16.6588 40.6815C16.1311 40.9622 15.5418 41.1991 15.1713 40.8287Z" fill="#FECA57"/>
<path d="M43.5306 12.0079C41.6231 11.9537 39.7883 12.1836 38.0134 12.7003L43.2997 17.9867C43.8165 16.2118 44.0464 14.3768 43.9921 12.4694C43.985 12.2176 43.7825 12.015 43.5306 12.0079Z" fill="#FF6B6B"/>
<path d="M25.6192 36.0426C25.6542 36.0284 25.6894 36.0138 25.725 35.9989C25.7402 35.9924 25.7555 35.986 25.7709 35.9796C25.8124 35.9618 25.8542 35.9436 25.8964 35.925C25.9044 35.9214 25.9121 35.9183 25.92 35.9146C25.9687 35.8929 26.0179 35.8706 26.0675 35.8476C26.0848 35.8397 26.1023 35.8315 26.1196 35.8233C26.1533 35.8076 26.1873 35.7916 26.2214 35.7753C26.2414 35.7656 26.2615 35.7561 26.2815 35.7463C26.3162 35.7296 26.3511 35.7124 26.3861 35.6951C26.404 35.6861 26.4218 35.6776 26.4399 35.6686C26.4882 35.6443 26.5369 35.6197 26.586 35.5946C26.6104 35.5821 26.6351 35.5691 26.6597 35.5563C26.6876 35.5418 26.7156 35.5274 26.7436 35.5125C26.7711 35.4981 26.7987 35.4834 26.8264 35.4686C26.8519 35.4549 26.8776 35.4412 26.9033 35.4274C26.9322 35.4118 26.9612 35.3962 26.9904 35.3803C27.0016 35.3742 27.013 35.3678 27.0243 35.3616C27.0937 35.3234 27.1636 35.2844 27.2342 35.2448C27.2535 35.234 27.2726 35.2231 27.292 35.2122C27.3275 35.1921 27.3629 35.1717 27.3986 35.1512C27.4161 35.1412 27.4336 35.1311 27.4511 35.1209C27.4884 35.0992 27.5258 35.0776 27.5635 35.0556L26.2192 33.7113C25.4411 34.1671 24.7184 34.5332 24.0904 34.7711C23.9156 34.8374 23.7181 34.7949 23.5859 34.6628L19.993 31.0699L24.9302 36.007C25.0624 36.1392 25.2598 36.1816 25.4347 36.1154C25.4813 36.0978 25.5287 36.0791 25.5764 36.06C25.5907 36.0542 25.6049 36.0483 25.6192 36.0426Z" fill="#222F3E"/>
<path d="M42.6515 12.0041C42.6233 13.598 42.392 15.1416 41.9554 16.6422L43.2997 17.9866C43.3296 17.8844 43.3581 17.7819 43.3859 17.6793C43.3919 17.6572 43.3977 17.635 43.4036 17.613C43.4841 17.312 43.5562 17.0093 43.6203 16.7048C43.6281 16.6678 43.6358 16.6308 43.6434 16.5938C43.6621 16.5021 43.6803 16.4103 43.6975 16.3182C43.7041 16.2826 43.7102 16.2468 43.7166 16.2113C43.7444 16.057 43.7702 15.9025 43.7939 15.7475C43.8029 15.688 43.8121 15.6286 43.8206 15.5691C43.8313 15.4934 43.8416 15.4176 43.8514 15.3416C43.8609 15.2673 43.8698 15.1928 43.8785 15.1183C43.8876 15.0403 43.8965 14.9625 43.9046 14.8844C43.9164 14.7698 43.9271 14.655 43.9366 14.5398C43.9414 14.482 43.9456 14.424 43.9499 14.3661C43.9568 14.2704 43.9632 14.1747 43.9687 14.0788C43.9716 14.0288 43.9747 13.979 43.9771 13.929C43.9841 13.7886 43.9896 13.6479 43.9933 13.5067C43.9942 13.4707 43.9946 13.4344 43.9952 13.3983C43.9976 13.2816 43.999 13.1647 43.9991 13.0475C43.9992 13.0045 43.9992 12.9613 43.9991 12.9182C43.9983 12.769 43.9964 12.6193 43.9921 12.4692C43.985 12.2173 43.7824 12.0149 43.5306 12.0077C43.2357 11.9993 42.9429 11.999 42.6515 12.0041Z" fill="#EE5253"/>
</g>
<path d="M0 -0.890625H-0.890625V0V21.375V23.5252L0.629767 22.0048L22.0048 0.629767L23.5252 -0.890625H21.375H0Z" fill="#57576A" stroke="#20202E" stroke-width="1.78125"/>
<path d="M58.7812 59.6719L59.6719 59.6719L59.6719 58.7813L59.6719 37.4063L59.6719 35.2561L58.1515 36.7765L36.7765 58.1515L35.2561 59.6719L37.4062 59.6719L58.7812 59.6719Z" fill="#57576A" stroke="#20202E" stroke-width="1.78125"/>
</g>
<defs>
<linearGradient id="paint0_linear_46_27069" x1="43.4951" y1="17.3036" x2="13.7325" y2="18.7197" gradientUnits="userSpaceOnUse">
<stop stop-color="#FF616A"/>
<stop offset="1" stop-color="#FF8291"/>
</linearGradient>
<clipPath id="clip0_46_27069">
<rect width="56" height="56" fill="white"/>
</clipPath>
<clipPath id="clip1_46_27069">
<rect width="32" height="32" fill="white" transform="translate(12 12)"/>
</clipPath>
</defs>
</svg>
