<svg width="28" height="29" viewBox="0 0 28 29" fill="none" xmlns="http://www.w3.org/2000/svg">
<circle cx="14" cy="14.5" r="14" fill="url(#paint0_linear_3_83763)"/>
<path d="M16.9366 9.41544C14.7622 7.24102 11.2358 7.24102 9.06143 9.41544C6.88701 11.5899 6.88701 15.1162 9.06143 17.2906C10.9877 19.2169 13.9751 19.4343 16.1425 17.9477L18.8534 20.98C19.3143 21.4976 20.1155 21.5189 20.6047 21.0297L20.6757 20.9588C21.1649 20.4695 21.1436 19.6683 20.626 19.2074L17.5937 16.4965C19.0827 14.3268 18.8629 11.3417 16.9366 9.41544ZM15.5847 15.9387C14.1571 17.3662 11.8409 17.3662 10.4133 15.9387C8.9858 14.5111 8.9858 12.1949 10.4133 10.7674C11.8409 9.33981 14.1571 9.33981 15.5847 10.7674C17.0146 12.1973 17.0122 14.5111 15.5847 15.9387Z" fill="#FEFDFE"/>
<defs>
<linearGradient id="paint0_linear_3_83763" x1="21.366" y1="8.99999" x2="6.74578" y2="9.69565" gradientUnits="userSpaceOnUse">
<stop stop-color="#7B61FF"/>
<stop offset="1" stop-color="#AA82FF"/>
</linearGradient>
</defs>
</svg>
