<svg width="40" height="40" viewBox="0 0 40 40" fill="none" xmlns="http://www.w3.org/2000/svg">
<g clip-path="url(#clip0_46_26939)">
<path d="M20 40C8.93953 40 0 31.0634 0 20C0 8.93945 8.93672 0 20 0C31.0605 0 40 8.93664 40 20C40 31.0605 31.0634 40 20 40Z" fill="#30313F"/>
<g clip-path="url(#clip1_46_26939)">
<path d="M28.2117 15.7189C25.57 11.3788 21.5906 14.3982 21.5906 14.3982C21.3325 14.5933 20.8567 14.7537 20.5333 14.7544L19.4674 14.7551C19.1441 14.7555 18.6682 14.5951 18.4105 14.4001C18.4105 14.4001 14.4307 11.3799 11.7887 15.72C9.14741 20.0585 10.2118 24.7835 10.2118 24.7835C10.3983 25.9404 11.0129 26.7124 12.1728 26.6154C13.3293 26.5188 15.8397 23.4998 15.8397 23.4998C16.047 23.251 16.4815 23.0478 16.8041 23.0478L23.1943 23.0466C23.5173 23.0466 23.9514 23.2499 24.1584 23.4987C24.1584 23.4987 26.6691 26.5177 27.8275 26.6143C28.9859 26.7113 29.602 25.9385 29.7874 24.7824C29.787 24.7824 30.8533 20.0582 28.2117 15.7189ZM17.5985 19.2515H16.2283V20.5721C16.2283 20.5721 15.9381 20.7936 15.4891 20.788C15.0408 20.7813 14.8379 20.5464 14.8379 20.5464V19.2518H13.5438C13.5438 19.2518 13.3823 19.0863 13.339 18.6503C13.2965 18.2143 13.5177 17.8618 13.5177 17.8618H14.8883V16.4916C14.8883 16.4916 15.1702 16.3406 15.5756 16.3521C15.9814 16.3648 16.2786 16.5173 16.2786 16.5173L16.2731 17.8615H17.5672C17.5672 17.8615 17.7932 18.1516 17.8119 18.5022C17.8305 18.8532 17.5985 19.2515 17.5985 19.2515ZM23.8835 20.7567C23.2835 20.7567 22.7997 20.2715 22.7997 19.6722C22.7997 19.0717 23.2835 18.5876 23.8835 18.5876C24.481 18.5876 24.9685 19.0717 24.9685 19.6722C24.9685 20.2719 24.481 20.7567 23.8835 20.7567ZM23.8835 17.7727C23.2835 17.7727 22.7997 17.2879 22.7997 16.6885C22.7997 16.0881 23.2835 15.604 23.8835 15.604C24.481 15.604 24.9685 16.0881 24.9685 16.6885C24.9685 17.2882 24.481 17.7727 23.8835 17.7727ZM26.5845 19.3745C25.9844 19.3745 25.5007 18.8897 25.5007 18.29C25.5007 17.6899 25.9844 17.2054 26.5845 17.2054C27.1819 17.2054 27.6694 17.6899 27.6694 18.29C27.6694 18.8897 27.1819 19.3745 26.5845 19.3745Z" fill="white"/>
</g>
</g>
<defs>
<clipPath id="clip0_46_26939">
<rect width="40" height="40" fill="white"/>
</clipPath>
<clipPath id="clip1_46_26939">
<rect width="20" height="20" fill="white" transform="translate(10 10)"/>
</clipPath>
</defs>
</svg>
