<svg  width="49" height="55" viewBox="0 0 49 55" fill="none" xmlns="http://www.w3.org/2000/svg">
<path d="M48.9832 25.4541C48.9832 39.0678 38.7038 51.7985 24.8908 54.8892C11.0778 51.7985 0.79834 39.0678 0.79834 25.4541V10.7365L24.8908 0.924805L48.9832 10.7365V25.4541ZM24.8908 49.9834C34.9293 47.5304 43.6293 36.5904 43.6293 25.9937V13.9253L24.8908 6.27219L6.15222 13.9253V25.9937C6.15222 36.5904 14.8523 47.5304 24.8908 49.9834ZM32.3862 25.4541V21.7747C32.3862 18.3406 28.6385 15.6424 24.8908 15.6424C21.1431 15.6424 17.3954 18.3406 17.3954 21.7747V25.4541C15.7892 25.4541 14.183 26.9258 14.183 28.3976V36.9828C14.183 38.6999 15.7892 40.1717 17.3954 40.1717H32.1185C33.9924 40.1717 35.5985 38.6999 35.5985 37.2281V28.6429C35.5985 26.9258 33.9924 25.4541 32.3862 25.4541ZM28.9062 25.4541H20.8754V21.7747C20.8754 19.8124 22.7492 18.5859 24.8908 18.5859C27.0323 18.5859 28.9062 19.8124 28.9062 21.7747V25.4541Z" fill="white"/>
</svg>
